<?xml version="1.0" encoding="utf-8"?>
<!-- Generator: Adobe Illustrator 21.1.0, SVG Export Plug-In . SVG Version: 6.00 Build 0)  -->
<svg version="1.1" id="Ebene_1" xmlns="http://www.w3.org/2000/svg" xmlns:xlink="http://www.w3.org/1999/xlink" x="0px" y="0px"
	 viewBox="0 0 409 130" style="enable-background:new 0 0 409 130;" xml:space="preserve">
<g>
	<path d="M50.5,105.4v0.9h-4.4v2.7h4.2v0.9h-4.2v3.2h-1v-7.7H50.5z"/>
	<path d="M57.4,110.3h-1.9v2.8h-1v-7.7h3.5c0.8,0,1.5,0.2,1.9,0.7c0.5,0.5,0.7,1.1,0.7,1.7c0,0.6-0.2,1.2-0.5,1.6s-0.9,0.7-1.7,0.8
		l2.5,2.8h-1.2L57.4,110.3z M59.3,109c0.3-0.3,0.4-0.7,0.4-1.1c0-0.4-0.1-0.8-0.4-1.1s-0.7-0.5-1.2-0.5h-2.5v3.2H58
		C58.6,109.5,59,109.3,59.3,109z"/>
	<path d="M71.2,106.4c0.7,0.8,1,1.7,1,2.8c0,0.5-0.1,1-0.2,1.5s-0.4,0.9-0.7,1.3c-0.3,0.4-0.7,0.7-1.2,0.9s-1.1,0.3-1.7,0.3
		s-1.2-0.1-1.7-0.3s-0.9-0.5-1.2-0.9c-0.3-0.4-0.6-0.8-0.7-1.3s-0.2-1-0.2-1.5c0-1.1,0.4-2.1,1.1-2.9c0.7-0.8,1.7-1.1,2.9-1.1
		C69.5,105.3,70.5,105.7,71.2,106.4z M71,107.8c-0.2-0.5-0.5-0.8-1-1.1c-0.5-0.3-1-0.5-1.6-0.5c-0.9,0-1.7,0.3-2.2,0.9
		c-0.5,0.6-0.8,1.3-0.8,2.2c0,0.9,0.3,1.6,0.8,2.2c0.5,0.6,1.2,0.9,2.2,0.9c0.9,0,1.7-0.3,2.2-0.9c0.5-0.6,0.8-1.3,0.8-2.2
		C71.3,108.7,71.2,108.2,71,107.8z"/>
	<path d="M76.9,105.4l4.7,5.9v-5.9h0.9v7.7h-0.7l-4.7-5.9v5.9h-0.9v-7.7H76.9z"/>
	<path d="M86.3,106.2v-0.9h6.2v0.9h-2.6v6.8h-0.9v-6.8H86.3z"/>
	<path d="M96.2,105.4h5.4v0.9h-4.5v2.4h4.3v0.9h-4.3v2.6h4.6v0.9h-5.6V105.4z"/>
	<path d="M106.5,105.4l4.7,5.9v-5.9h0.9v7.7h-0.7l-4.7-5.9v5.9h-0.9v-7.7H106.5z"/>
	<path d="M116.6,105.4h2.8c0.6,0,1.2,0.1,1.7,0.3c0.5,0.2,0.9,0.5,1.2,0.9s0.5,0.8,0.7,1.2c0.2,0.4,0.2,0.9,0.2,1.4
		c0,0.5-0.1,1-0.2,1.4c-0.2,0.5-0.4,0.9-0.7,1.3c-0.3,0.4-0.7,0.7-1.2,0.9c-0.5,0.2-1.1,0.3-1.7,0.3h-2.8V105.4L116.6,105.4z
		 M121.6,111.2c0.5-0.6,0.7-1.3,0.7-2.1c0-0.8-0.3-1.4-0.8-2s-1.2-0.8-2.2-0.8h-1.8v5.8h1.8C120.4,112.1,121.1,111.8,121.6,111.2z"
		/>
	<path d="M136,105.4c0.7,0,1.4,0.2,1.8,0.6c0.5,0.4,0.7,0.9,0.7,1.6c0,0.4-0.1,0.7-0.3,1c-0.2,0.3-0.5,0.5-0.8,0.6
		c0.4,0.1,0.8,0.4,1,0.7c0.2,0.4,0.4,0.7,0.4,1.1c0,0.4-0.1,0.7-0.2,1c-0.2,0.3-0.4,0.5-0.6,0.7c-0.3,0.2-0.6,0.3-0.9,0.3
		c-0.3,0.1-0.7,0.1-1.1,0.1h-3.4v-7.7H136z M133.6,108.7h2.5c0.5,0,0.9-0.1,1.2-0.3c0.3-0.2,0.4-0.5,0.4-0.9c0-0.4-0.2-0.7-0.5-1
		c-0.3-0.2-0.7-0.3-1.2-0.3h-2.4V108.7z M133.6,112.2h2.4c0.2,0,0.4,0,0.6-0.1c0.2,0,0.4-0.1,0.6-0.2c0.2-0.1,0.4-0.2,0.5-0.4
		c0.1-0.2,0.2-0.4,0.2-0.6c0-0.4-0.2-0.8-0.6-1c-0.4-0.2-0.8-0.3-1.3-0.3h-2.5V112.2z"/>
	<path d="M149.2,106.4c0.7,0.8,1,1.7,1,2.8c0,0.5-0.1,1-0.2,1.5s-0.4,0.9-0.7,1.3c-0.3,0.4-0.7,0.7-1.2,0.9s-1.1,0.3-1.7,0.3
		s-1.2-0.1-1.7-0.3s-0.9-0.5-1.2-0.9c-0.3-0.4-0.6-0.8-0.7-1.3s-0.2-1-0.2-1.5c0-1.1,0.4-2.1,1.1-2.9c0.7-0.8,1.7-1.1,2.9-1.1
		C147.6,105.3,148.5,105.7,149.2,106.4z M149,107.8c-0.2-0.5-0.5-0.8-1-1.1c-0.5-0.3-1-0.5-1.6-0.5c-0.9,0-1.7,0.3-2.2,0.9
		c-0.5,0.6-0.8,1.3-0.8,2.2c0,0.9,0.3,1.6,0.8,2.2c0.5,0.6,1.2,0.9,2.2,0.9c0.9,0,1.7-0.3,2.2-0.9c0.5-0.6,0.8-1.3,0.8-2.2
		C149.3,108.7,149.2,108.2,149,107.8z"/>
	<path d="M154.3,105.4h1v7.7h-1V105.4z"/>
	<path d="M160.7,112.2h4.2v0.9h-5.1v-7.7h1V112.2z"/>
	<path d="M168.6,105.4h5.4v0.9h-4.5v2.4h4.3v0.9h-4.3v2.6h4.6v0.9h-5.6V105.4z"/>
	<path d="M181.1,110.3h-1.9v2.8h-1v-7.7h3.5c0.8,0,1.5,0.2,1.9,0.7c0.5,0.5,0.7,1.1,0.7,1.7c0,0.6-0.2,1.2-0.5,1.6s-0.9,0.7-1.7,0.8
		l2.5,2.8h-1.2L181.1,110.3z M183,109c0.3-0.3,0.4-0.7,0.4-1.1c0-0.4-0.1-0.8-0.4-1.1s-0.7-0.5-1.2-0.5h-2.5v3.2h2.5
		C182.2,109.5,182.7,109.3,183,109z"/>
	<path d="M189.5,113.1h-0.9v-7.7h3.5c0.5,0,0.9,0.1,1.3,0.3s0.7,0.4,0.9,0.7s0.3,0.6,0.4,1s0.1,0.7,0,1.1s-0.2,0.7-0.4,1
		c-0.2,0.3-0.5,0.6-0.9,0.7s-0.8,0.3-1.3,0.3h-2.6V113.1z M193,109.5c0.3-0.2,0.5-0.4,0.6-0.6c0.1-0.3,0.2-0.5,0.2-0.8
		s-0.1-0.6-0.2-0.8c-0.1-0.3-0.3-0.5-0.6-0.6c-0.3-0.2-0.6-0.3-0.9-0.3h-2.6v3.4h2.6C192.4,109.7,192.7,109.6,193,109.5z"/>
	<path d="M199.5,112.2h4.2v0.9h-5.1v-7.7h1V112.2z"/>
	<path d="M211.1,105.4l3.5,7.7h-1l-0.8-1.7h-4.4l-0.7,1.7h-1l3.5-7.7H211.1z M210.6,106.4l-1.8,4.2h3.7L210.6,106.4z"/>
	<path d="M216.7,106.2v-0.9h6.2v0.9h-2.6v6.8h-0.9v-6.8H216.7z"/>
	<path d="M226.6,105.4h5.4v0.9h-4.5v2.4h4.3v0.9h-4.3v2.6h4.6v0.9h-5.6V105.4z"/>
	<path d="M241.5,105.4l2.1,6.4l2.1-6.4h0.6l2.2,6.4l2.1-6.4h1.1l-2.7,7.7h-1l-2-5.8l-2,5.8h-1l-2.7-7.7H241.5z"/>
	<path d="M255.5,105.4h1v7.7h-1V105.4z"/>
	<path d="M260.2,106.2v-0.9h6.2v0.9h-2.6v6.8h-0.9v-6.8H260.2z"/>
	<path d="M275.4,109.6H271v3.5h-1v-7.7h1v3.3h4.4v-3.3h1v7.7h-1V109.6z"/>
	<path d="M289.5,105.4l3.5,7.7h-1l-0.8-1.7h-4.4l-0.7,1.7h-1l3.5-7.7H289.5z M289,106.4l-1.8,4.2h3.7L289,106.4z"/>
	<path d="M295.1,106.2v-0.9h6.2v0.9h-2.6v6.8h-0.9v-6.8H295.1z"/>
	<path d="M304.2,106.2v-0.9h6.2v0.9h-2.6v6.8h-0.9v-6.8H304.2z"/>
	<path d="M314.1,105.4h1v7.7h-1V105.4z"/>
	<path d="M318.7,106.2v-0.9h6.2v0.9h-2.6v6.8h-0.9v-6.8H318.7z"/>
	<path d="M334.8,105.4v4.6c0,1-0.3,1.8-0.9,2.4c-0.6,0.6-1.3,0.8-2.2,0.8c-0.9,0-1.6-0.3-2.2-0.8c-0.6-0.6-0.9-1.3-0.9-2.4v-4.6h0.9
		v4.6c0,0.7,0.2,1.3,0.6,1.7c0.4,0.4,0.9,0.6,1.6,0.6s1.1-0.2,1.6-0.6s0.6-1,0.6-1.7v-4.6L334.8,105.4L334.8,105.4z"/>
	<path d="M339.2,105.4h2.8c0.6,0,1.2,0.1,1.7,0.3c0.5,0.2,0.9,0.5,1.2,0.9c0.3,0.4,0.5,0.8,0.7,1.2c0.2,0.4,0.2,0.9,0.2,1.4
		c0,0.5-0.1,1-0.2,1.4c-0.2,0.5-0.4,0.9-0.7,1.3c-0.3,0.4-0.7,0.7-1.2,0.9c-0.5,0.2-1.1,0.3-1.7,0.3h-2.8V105.4L339.2,105.4z
		 M344.2,111.2c0.5-0.6,0.7-1.3,0.7-2.1c0-0.8-0.3-1.4-0.8-2s-1.2-0.8-2.2-0.8h-1.8v5.8h1.8C343,112.1,343.7,111.8,344.2,111.2z"/>
	<path d="M349.9,105.4h5.4v0.9h-4.5v2.4h4.3v0.9h-4.3v2.6h4.6v0.9h-5.6V105.4z"/>
</g>
<g>
	<path d="M76.9,53.2c0.3,15.6-9.2,31.3-30.8,31.3c-7.6,0-16.6,0-24.2,0V23c7.6,0,16.6,0,24.2,0C67.3,23,76.7,38,76.9,53.2z
		 M33.5,73.3h12.7c14,0,19.5-10.2,19.2-20.2c-0.3-9.6-5.9-19.2-19.2-19.2H33.5V73.3z"/>
	<path d="M212.9,84.5H199l-17.9-20.6H170v20.6h-11.6V22.9c9.8,0,19.5,0.1,29.3,0.1c14.5,0.1,22.1,9.8,22.1,20.4
		c0,8.4-3.9,17-15.6,19.3l18.6,21V84.5z M170,33.8v19.7h17.7c7.4,0,10.5-4.9,10.5-9.8s-3.3-9.8-10.5-9.8H170z"/>
	<path d="M258.3,84.7h-12L220.7,23h13l18.5,47.9L270.8,23h13L258.3,84.7z"/>
	<path d="M299.8,84.5V23h11.5v61.5H299.8z"/>
	<path d="M371.5,22.9h11.6v61.6h-7.2v0.1L343.5,43v41.5h-11.6V23h9.4l30.1,38.1V22.9z"/>
	<g>
		<path d="M145.4,83.9h-13L113.8,36L95.2,83.9h-13l25.6-61.8h12L145.4,83.9z"/>
	</g>
	<path d="M120,73.3c0,8.3-12.7,8.3-12.7,0S120,65,120,73.3z"/>
</g>
</svg>
