<?xml version="1.0" encoding="utf-8"?>
<!-- Generator: Adobe Illustrator 21.1.0, SVG Export Plug-In . SVG Version: 6.00 Build 0)  -->
<svg version="1.1" id="Ebene_1" xmlns="http://www.w3.org/2000/svg" xmlns:xlink="http://www.w3.org/1999/xlink" x="0px" y="0px"
	 viewBox="0 0 315 114" style="enable-background:new 0 0 315 114;" xml:space="preserve">
<style type="text/css">
	.st0{fill:#FF2B21;}
	.st1{fill:#FF6B64;}
	.st2{fill:#FFFFFF;}
	.st3{fill:url(#SVGID_1_);}
	.st4{fill:url(#SVGID_2_);}
	.st5{fill:url(#SVGID_3_);}
	.st6{fill:url(#SVGID_4_);}
	.st7{fill:url(#SVGID_5_);}
	.st8{fill:url(#SVGID_6_);}
	.st9{fill:url(#SVGID_7_);}
	.st10{fill:#FF8B85;}
</style>
<g>
	<path class="st0" d="M89.6,29.5c-0.9,0-1.9,0.5-2.3,1.6c-0.2,0.6-0.9,2.7-1.6,3.4c-1.2,1.3-2.8,1.5-4.1,1.3
		c0.1,1.7,0.3,3.6,0.6,5.5c6.2,3.1,10.2,9.5,10.2,16.5c0,4.9-1.9,9.5-5.4,13l0,4.4c0.4-1,1.3-1.6,1.9-2c3.1-2.2,9,0.7,10.3-1.4
		c1.3-2.1-5-6.1-4.3-8.6c0.7-2.4,9.7-2.9,9.8-5.4c0.1-2.5-9.7-3.3-10.2-5.8c-0.6-2.5,4-5.7,2.9-8c-1.2-2.3-6-0.2-7.9-1.9
		c-0.9-0.7-2.1-3-1.2-5.8c0.4-1.5,2.2-2.6,2.9-3.8c0.6-1,0.1-2.4-0.8-2.9C90.2,29.6,89.9,29.5,89.6,29.5L89.6,29.5z M61.6,30.7
		c-0.2,0-0.3,0.1-0.5,0.1C58.9,32,61.8,39,60,40.7c-1.8,1.7-8.2-1.4-9.5,0.8c-1.3,2.1,4.4,6.1,3.7,8.5c-0.7,2.4-8.2,2.6-8.3,5.2
		c-0.1,2.5,5.3,4.1,6.9,6.1c0.7,0.9,0.8,2.4,0,3.5c-0.5,0.8-1.2,0.7-2.1,0.9c-4.5,0.9-2.3,7.6,1.7,5.2c0.9-0.5,0.8-0.7,1.6-1
		c2.5-0.9,4,2,4.2,3.5c0.3,2.9-2.7,6.4,0.2,8.6c0.8,0.6,1.5,0.8,2.2,0.8l0-12.5c-3.1-3.4-4.9-7.9-4.9-12.5c0-7.2,4.2-13.7,10.7-16.7
		c0.4-2.3,0.7-4.5,1-6.4c-1.9-1.4-3.9-4-5.5-4.1C61.7,30.7,61.7,30.7,61.6,30.7L61.6,30.7z M87.1,77.4L87,85
		c1.9,0.6,4.2-1.6,2.9-3.5C88.4,79.1,87.7,78.9,87.1,77.4L87.1,77.4z M87.1,77.4"/>
	<path class="st0" d="M57.5,28.2c0.6,1.1,1.8,1.7,2.7,1.2c0.9-0.5,1-1.8,0.4-2.9c-0.6-1.1-1.8-1.7-2.7-1.2
		C57.1,25.7,56.9,27,57.5,28.2L57.5,28.2z M57.5,28.2"/>
	<path class="st0" d="M42.9,56.4c1.1-0.1,1.9-0.9,1.8-1.8c-0.1-0.9-1.1-1.5-2.2-1.4c-1.1,0.1-1.9,0.9-1.8,1.8
		C40.8,55.9,41.8,56.5,42.9,56.4L42.9,56.4z M42.9,56.4"/>
	<path class="st0" d="M100.9,73.9c0.8,0.4,1.7,0.2,2-0.5c0.3-0.6-0.2-1.5-1-1.9c-0.8-0.4-1.7-0.2-2,0.5
		C99.7,72.7,100.1,73.5,100.9,73.9L100.9,73.9z M100.9,73.9"/>
	<path class="st0" d="M100.9,44.1c0.9-0.4,1.3-1.4,0.9-2.2c-0.4-0.8-1.4-1.1-2.3-0.7c-0.9,0.4-1.3,1.4-0.9,2.2
		C99,44.2,100,44.6,100.9,44.1L100.9,44.1z M100.9,44.1"/>
	<path class="st0" d="M57.3,85.9c0.4-0.7,0.2-1.5-0.4-1.9c-0.6-0.4-1.4-0.1-1.8,0.5c-0.4,0.7-0.2,1.5,0.4,1.9
		C56.1,86.8,56.9,86.6,57.3,85.9L57.3,85.9z M57.3,85.9"/>
	<path class="st0" d="M79.5,29.6c0,0,0.7,20.9,5.8,29.2L85,86.2c0,1.6-1.2,2.8-2.6,2.8l-17.2-0.1c-1.4,0-2.6-1.3-2.6-2.8l0.2-27.4
		c5.8-9.7,6.5-29.1,6.5-29.1L79.5,29.6z M79.5,29.6"/>
	<path class="st1" d="M71.1,29.5c0,0-0.7,19.4-6.5,29.1h0.1c0,0.3,0,1.7,0,3.7c1-0.5,2.3-0.9,3.7-1.2c0-1.6,0-2.8,0-2.8h0
		c5.6-9.7,4.5-28.6,4.5-28.8L71.1,29.5z M64.6,84.7c0,2.4,0,4.1,0,4.1c0,0,0.1,0,0.1,0c0.1,0,0.2,0,0.3,0c0.8,0,3.3,0,3.3,0
		c0,0,0-1.7,0-4.1L64.6,84.7z M64.6,84.7"/>
	<path class="st2" d="M73.5,60.7c-3.5,0-6.8,0.6-8.8,1.6l-0.2,22.3l18.7,0.2l0.2-22.3C80.7,61.3,77,60.7,73.5,60.7L73.5,60.7z
		 M73.5,60.7"/>
	<path class="st0" d="M80,21.9l-11.3-0.1c-0.4,0-0.8,0.3-0.8,0.8l0,5.2c0,0.4,0.3,0.8,0.8,0.8L80,28.7c0.4,0,0.8-0.3,0.8-0.8l0-5.2
		C80.8,22.3,80.5,21.9,80,21.9L80,21.9z M80,21.9"/>
	<g>
		<linearGradient id="SVGID_1_" gradientUnits="userSpaceOnUse" x1="123.9945" y1="67.4823" x2="123.9945" y2="32.9892">
			<stop  offset="0" style="stop-color:#FF2B21"/>
			<stop  offset="0.1673" style="stop-color:#FF2F25"/>
			<stop  offset="0.3378" style="stop-color:#FF3B31"/>
			<stop  offset="0.5096" style="stop-color:#FF4E46"/>
			<stop  offset="0.6816" style="stop-color:#FF6962"/>
			<stop  offset="0.6917" style="stop-color:#FF6B64"/>
			<stop  offset="0.7167" style="stop-color:#FF6058"/>
			<stop  offset="0.7787" style="stop-color:#FF4840"/>
			<stop  offset="0.8442" style="stop-color:#FF382F"/>
			<stop  offset="0.9149" style="stop-color:#FF2E24"/>
			<stop  offset="1" style="stop-color:#FF2B21"/>
		</linearGradient>
		<path class="st3" d="M120.7,47.6l6.1-14.6h5.6l-6,13.8l6.4,20.7h-5.8l-4.3-15.3l-2.1,4.4v10.8h-5.7V33h5.7V47.6z"/>
		<linearGradient id="SVGID_2_" gradientUnits="userSpaceOnUse" x1="143.75" y1="67.4823" x2="143.75" y2="32.9892">
			<stop  offset="0" style="stop-color:#FF2B21"/>
			<stop  offset="0.1673" style="stop-color:#FF2F25"/>
			<stop  offset="0.3378" style="stop-color:#FF3B31"/>
			<stop  offset="0.5096" style="stop-color:#FF4E46"/>
			<stop  offset="0.6816" style="stop-color:#FF6962"/>
			<stop  offset="0.6917" style="stop-color:#FF6B64"/>
			<stop  offset="0.7167" style="stop-color:#FF6058"/>
			<stop  offset="0.7787" style="stop-color:#FF4840"/>
			<stop  offset="0.8442" style="stop-color:#FF382F"/>
			<stop  offset="0.9149" style="stop-color:#FF2E24"/>
			<stop  offset="1" style="stop-color:#FF2B21"/>
		</linearGradient>
		<path class="st4" d="M141.9,47.2h6.7v4.8h-6.7v10.3h9.5v5.1h-15.1V33h14.8v5h-9.1V47.2z"/>
		<linearGradient id="SVGID_3_" gradientUnits="userSpaceOnUse" x1="162.1919" y1="67.4823" x2="162.1919" y2="32.9892">
			<stop  offset="0" style="stop-color:#FF2B21"/>
			<stop  offset="0.1673" style="stop-color:#FF2F25"/>
			<stop  offset="0.3378" style="stop-color:#FF3B31"/>
			<stop  offset="0.5096" style="stop-color:#FF4E46"/>
			<stop  offset="0.6816" style="stop-color:#FF6962"/>
			<stop  offset="0.6917" style="stop-color:#FF6B64"/>
			<stop  offset="0.7167" style="stop-color:#FF6058"/>
			<stop  offset="0.7787" style="stop-color:#FF4840"/>
			<stop  offset="0.8442" style="stop-color:#FF382F"/>
			<stop  offset="0.9149" style="stop-color:#FF2E24"/>
			<stop  offset="1" style="stop-color:#FF2B21"/>
		</linearGradient>
		<path class="st5" d="M165.1,38.1v29.4h-5.7V38.1h-6.1V33h17.7v5.1H165.1z"/>
		<linearGradient id="SVGID_4_" gradientUnits="userSpaceOnUse" x1="181.8516" y1="68.0557" x2="181.8516" y2="32.4158">
			<stop  offset="0" style="stop-color:#FF2B21"/>
			<stop  offset="0.1673" style="stop-color:#FF2F25"/>
			<stop  offset="0.3378" style="stop-color:#FF3B31"/>
			<stop  offset="0.5096" style="stop-color:#FF4E46"/>
			<stop  offset="0.6816" style="stop-color:#FF6962"/>
			<stop  offset="0.6917" style="stop-color:#FF6B64"/>
			<stop  offset="0.7167" style="stop-color:#FF6058"/>
			<stop  offset="0.7787" style="stop-color:#FF4840"/>
			<stop  offset="0.8442" style="stop-color:#FF382F"/>
			<stop  offset="0.9149" style="stop-color:#FF2E24"/>
			<stop  offset="1" style="stop-color:#FF2B21"/>
		</linearGradient>
		<path class="st6" d="M184.8,45.8v-5.2c0-1.9-0.8-3.2-2.7-3.2c-2.1,0-3,1.2-3,3.3v18.9c0,2.1,0.9,3.3,3,3.3c2,0,2.7-1.2,2.7-3.2
			v-5.6h5.5v5.4c0,5.1-3.2,8.4-8.3,8.4c-5.2,0-8.7-3.3-8.7-8.5V40.9c0-5.2,3.5-8.5,8.7-8.5c5.2,0,8.3,3.2,8.3,8.4v5.1H184.8z"/>
		<linearGradient id="SVGID_5_" gradientUnits="userSpaceOnUse" x1="203.1833" y1="67.4823" x2="203.1833" y2="32.9892">
			<stop  offset="0" style="stop-color:#FF2B21"/>
			<stop  offset="0.1673" style="stop-color:#FF2F25"/>
			<stop  offset="0.3378" style="stop-color:#FF3B31"/>
			<stop  offset="0.5096" style="stop-color:#FF4E46"/>
			<stop  offset="0.6816" style="stop-color:#FF6962"/>
			<stop  offset="0.6917" style="stop-color:#FF6B64"/>
			<stop  offset="0.7167" style="stop-color:#FF6058"/>
			<stop  offset="0.7787" style="stop-color:#FF4840"/>
			<stop  offset="0.8442" style="stop-color:#FF382F"/>
			<stop  offset="0.9149" style="stop-color:#FF2E24"/>
			<stop  offset="1" style="stop-color:#FF2B21"/>
		</linearGradient>
		<path class="st7" d="M206.2,67.5V52.6h-6.1v14.9h-5.7V33h5.7v14.5h6.1V33h5.7v34.5H206.2z"/>
		<linearGradient id="SVGID_6_" gradientUnits="userSpaceOnUse" x1="225.519" y1="68.0557" x2="225.519" y2="32.9892">
			<stop  offset="0" style="stop-color:#FF2B21"/>
			<stop  offset="0.1673" style="stop-color:#FF2F25"/>
			<stop  offset="0.3378" style="stop-color:#FF3B31"/>
			<stop  offset="0.5096" style="stop-color:#FF4E46"/>
			<stop  offset="0.6816" style="stop-color:#FF6962"/>
			<stop  offset="0.6917" style="stop-color:#FF6B64"/>
			<stop  offset="0.7167" style="stop-color:#FF6058"/>
			<stop  offset="0.7787" style="stop-color:#FF4840"/>
			<stop  offset="0.8442" style="stop-color:#FF382F"/>
			<stop  offset="0.9149" style="stop-color:#FF2E24"/>
			<stop  offset="1" style="stop-color:#FF2B21"/>
		</linearGradient>
		<path class="st8" d="M234.2,59.6c0,5.2-3.3,8.5-8.6,8.5c-5.3,0-8.6-3.3-8.6-8.5V33h5.7v26.7c0,1.8,0.6,3.3,2.9,3.3
			c2.3,0,2.9-1.5,2.9-3.3V33h5.7V59.6z"/>
		<linearGradient id="SVGID_7_" gradientUnits="userSpaceOnUse" x1="247.9261" y1="67.4823" x2="247.9261" y2="32.9892">
			<stop  offset="0" style="stop-color:#FF2B21"/>
			<stop  offset="0.1673" style="stop-color:#FF2F25"/>
			<stop  offset="0.3378" style="stop-color:#FF3B31"/>
			<stop  offset="0.5096" style="stop-color:#FF4E46"/>
			<stop  offset="0.6816" style="stop-color:#FF6962"/>
			<stop  offset="0.6917" style="stop-color:#FF6B64"/>
			<stop  offset="0.7167" style="stop-color:#FF6058"/>
			<stop  offset="0.7787" style="stop-color:#FF4840"/>
			<stop  offset="0.8442" style="stop-color:#FF382F"/>
			<stop  offset="0.9149" style="stop-color:#FF2E24"/>
			<stop  offset="1" style="stop-color:#FF2B21"/>
		</linearGradient>
		<path class="st9" d="M248.2,53.6H245v13.9h-5.7V33h8.9c6.8,0,8.5,4.3,8.5,10.3S255,53.6,248.2,53.6z M247.7,37.7H245v11.1h2.7
			c2.9,0,3.3-1.8,3.3-5.6C251,39.5,250.6,37.7,247.7,37.7z"/>
		<g>
			<path class="st0" d="M120.1,73.8l1.1,7.7l1-7.7h1.8l-2,11.7h-1.7l-1.2-7.4l-1.2,7.4h-1.7l-2-11.7h1.8l1,7.7l1.1-7.7H120.1z"/>
			<path class="st0" d="M128.4,78.7h2.3v1.6h-2.3v3.5h3.2v1.7h-5.1V73.8h5v1.7h-3.1V78.7z"/>
			<path class="st0" d="M138.6,79.4L138.6,79.4c1.1,0.5,1.4,1.3,1.4,2.7c0,2.2-0.6,3.3-2.9,3.3h-2.9V73.8h3c2,0,2.7,1.1,2.7,3.2
				C139.9,78.3,139.7,79,138.6,79.4z M136.2,78.8h0.8c0.8,0,1.1-0.5,1.1-1.7s-0.2-1.6-1.1-1.6h-0.8V78.8z M136.9,80.3h-0.7v3.6h0.7
				c1.1,0,1.3-0.5,1.3-1.8C138.1,81,138,80.3,136.9,80.3z"/>
			<path class="st0" d="M145.6,80.8h-1.1v4.7h-1.9V73.8h3c2.3,0,2.9,1.5,2.9,3.5C148.5,79.4,147.9,80.8,145.6,80.8z M145.4,75.4
				h-0.9v3.8h0.9c1,0,1.1-0.6,1.1-1.9C146.5,76,146.4,75.4,145.4,75.4z"/>
			<path class="st0" d="M151.9,73.8h2.3l2,11.7h-1.9l-0.3-2.4h-2l-0.3,2.4h-1.9L151.9,73.8z M152.3,81.4h1.4l-0.7-4.8L152.3,81.4z"
				/>
			<path class="st0" d="M162.3,78.2v-1.8c0-0.6-0.3-1.1-0.9-1.1c-0.7,0-1,0.4-1,1.1v6.4c0,0.7,0.3,1.1,1,1.1c0.7,0,0.9-0.4,0.9-1.1
				V81h1.9v1.8c0,1.7-1.1,2.8-2.8,2.8c-1.8,0-2.9-1.1-2.9-2.9v-6.3c0-1.7,1.2-2.9,2.9-2.9c1.7,0,2.8,1.1,2.8,2.8v1.7H162.3z"/>
			<path class="st0" d="M168.7,78.8l2.1-4.9h1.9l-2,4.7l2.2,7h-2l-1.5-5.2l-0.7,1.5v3.7h-1.9V73.8h1.9V78.8z"/>
			<path class="st0" d="M183.3,79c1.2,1.2,2.1,2.2,2.1,3.8c0,1.8-1.2,3-2.9,3c-1.8,0-2.9-1.2-2.9-3v-1.2h1.8v1.1
				c0,0.9,0.3,1.4,1.1,1.4c0.5,0,1-0.2,1-1.1c0-1.1-0.8-1.8-1.8-2.8c-1-0.9-2-2-2-3.7c0-1.5,0.8-2.8,2.8-2.8c1.7,0,2.7,1,2.7,3.2
				v0.7h-1.8v-0.6c0-1.2-0.3-1.6-0.9-1.6c-0.6,0-0.9,0.5-0.9,1.1C181.6,77.3,182.3,78,183.3,79z"/>
			<path class="st0" d="M191.3,75.6v10h-1.9v-10h-2.1v-1.7h6v1.7H191.3z"/>
			<path class="st0" d="M196.5,73.8h2.3l2,11.7H199l-0.3-2.4h-2l-0.3,2.4h-1.9L196.5,73.8z M197,81.4h1.4l-0.7-4.8L197,81.4z"/>
			<path class="st0" d="M207.3,85.5l-1.3-4.9h-0.7v4.9h-1.9V73.8h3c2.3,0,2.7,1.5,2.7,3.5c0,1.9-0.4,2.6-1.4,3.1l1.5,5.1H207.3z
				 M206,79.1c0.9,0,1.1-0.4,1.1-1.8s-0.3-1.8-1.1-1.8h-0.8v3.7H206z"/>
			<path class="st0" d="M215.2,75.6v10h-1.9v-10h-2.1v-1.7h6v1.7H215.2z"/>
			<path class="st0" d="M221.5,78.7h2.3v1.6h-2.3v3.5h3.2v1.7h-5.1V73.8h5v1.7h-3.1V78.7z"/>
			<path class="st0" d="M231.3,85.5l-1.3-4.9h-0.7v4.9h-1.9V73.8h3c2.3,0,2.7,1.5,2.7,3.5c0,1.9-0.4,2.6-1.4,3.1l1.5,5.1H231.3z
				 M230,79.1c0.9,0,1.1-0.4,1.1-1.8s-0.3-1.8-1.1-1.8h-0.8v3.7H230z"/>
			<path class="st0" d="M237.8,78.8l2.1-4.9h1.9l-2,4.7l2.2,7h-2l-1.5-5.2l-0.7,1.5v3.7h-1.9V73.8h1.9V78.8z"/>
			<path class="st0" d="M246.2,85.5h-1.9V73.8h1.9V85.5z"/>
			<path class="st0" d="M252.6,75.6v10h-1.9v-10h-2.1v-1.7h6v1.7H252.6z"/>
		</g>
	</g>
	<path class="st2" d="M74.1,66.9l6.2,3.5v7l-6.2,3.5l-6.2-3.5v-7L74.1,66.9z"/>
	<path class="st10" d="M79.1,77.2l-4.9,2.7v-2.1l3-1.7L79.1,77.2L79.1,77.2z M79.5,76.9v-5.7l-1.8,1v3.7L79.5,76.9L79.5,76.9z
		 M69,77.2l4.9,2.7v-2.1l-3-1.7L69,77.2L69,77.2z M68.6,76.9v-5.7l1.8,1v3.7L68.6,76.9z M68.9,70.7l5-2.8V70l-3.2,1.8l0,0L68.9,70.7
		L68.9,70.7z M79.2,70.7l-5-2.8V70l3.2,1.8l0,0L79.2,70.7L79.2,70.7z"/>
	<path class="st0" d="M73.8,77.3l-3-1.6v-3.3l3,1.7V77.3z M74.3,77.3l3-1.6v-3.3l-3,1.7V77.3z M71,72l3-1.6l3,1.6l-3,1.7L71,72z"/>
</g>
</svg>
