<svg xmlns="http://www.w3.org/2000/svg" xmlns:xlink="http://www.w3.org/1999/xlink" width="512" height="1026.999"><symbol id="sprite-hamburger" viewBox="0 0 512 512"><path d="M512 196.051c0-62.604-23.005-111.161-79.243-138.109-49.18-23.566-116.836-26.743-176.531-26.743S128.874 34.376 79.694 57.942C23.46 84.889.452 133.442.452 196.053v44.96h22.132L0 293.13l13.013 6.386c6.481 3.184 11.862 6.93 17.412 11.166v50.225H.451v14.987c0 57.846 47.509 104.907 105.906 104.907h300.734c57.846 0 104.907-47.327 104.907-104.907v-14.987h-29.974v-51.621c4.828-3.467 9.474-6.445 15.223-9.074l14.569-6.66-22.182-52.54H512v-44.961zM407.093 450.828H106.358c-36.67 0-67.352-25.886-74.407-60.047h448.57c-6.963 34.16-37.242 60.047-73.428 60.047zm42.209-154.63c-9.528 6.801-25.624 3.446-30.815-4.342-9.483-14.223-25.536-22.715-42.943-22.715-17.408 0-33.46 8.492-42.943 22.715-8.292 12.437-26.623 12.577-35.007 0a50.912 50.912 0 0 0-42.444-22.715 50.912 50.912 0 0 0-42.444 22.715c-8.292 12.437-26.623 12.577-35.007 0a50.912 50.912 0 0 0-42.444-22.715 50.909 50.909 0 0 0-42.443 22.715c-7.087 10.629-21.962 12.103-31.309 5.012-7.88-5.979-14.772-11.85-22.99-17.231l16.736-38.623h401.848l16.096 38.123c-8.635 5.3-15.607 11.146-23.891 17.061zm2.751 31.456v33.255H60.399V329.186c20.824 5.904 44.4-1.271 57.354-20.703 3.969-5.953 10.349-9.368 17.504-9.368 7.156 0 13.535 3.414 17.504 9.368 20.155 30.232 64.681 30.309 84.887 0 3.969-5.953 10.349-9.368 17.504-9.368 7.156 0 13.535 3.414 17.504 9.368 20.154 30.231 64.68 30.31 84.887 0 3.969-5.953 10.531-9.368 18.003-9.368s14.035 3.414 18.003 9.368c11.569 17.358 36.505 25.64 58.504 19.171zm29.973-116.614H30.425v-14.987c0-55.442 19.772-90.739 62.221-111.08 43.768-20.972 107.251-23.801 163.58-23.801S376.037 64 419.805 84.973c42.451 20.341 62.221 55.638 62.221 111.08v14.987z"/><path d="M121.343 151.097h29.974v29.974h-29.974zM241.237 151.097h29.974v29.974h-29.974zM361.131 151.097h29.974v29.974h-29.974zM301.184 91.15h29.974v29.974h-29.974zM181.29 91.15h29.974v29.974H181.29z"/></symbol><use xlink:href="#sprite-hamburger" width="512" height="512"/><symbol id="sprite-racing" viewBox="0 0 511.999 511.999"><path d="M293.6 230.954c-13.81 0-25.045 11.235-25.045 25.045 0 13.81 11.235 25.045 25.045 25.045s25.045-11.235 25.045-25.045c0-13.81-11.235-25.045-25.045-25.045zM310.189 155.037V200.2c12.862 3.83 23.872 11.989 31.333 22.788l42.956-13.958c-14.609-28.152-41.918-48.694-74.289-53.993zM394.754 240.574l-42.969 13.962c.012.488.038.973.038 1.463 0 13.297-4.49 25.558-12.02 35.371l26.53 36.514c18.279-18.492 29.583-43.892 29.583-71.885 0-5.242-.398-10.393-1.162-15.425z"/><path d="M293.6 37.6H91.789c-9.161 0-16.588 7.427-16.588 16.588s7.427 16.588 16.588 16.588h86.226a220.022 220.022 0 0 0-48.68 41.46H16.588C7.427 112.237 0 119.665 0 128.826s7.427 16.588 16.588 16.588h88.75C86.2 177.87 75.2 215.672 75.2 255.999c0 46.924 14.879 90.438 40.161 126.077H68.295c-9.161 0-16.588 7.427-16.588 16.588 0 9.161 7.427 16.588 16.588 16.588h76.019a219.779 219.779 0 0 0 33.701 25.969H18.299c-9.161 0-16.588 7.427-16.588 16.588 0 9.161 7.427 16.588 16.588 16.588H293.6c120.427 0 218.399-97.974 218.399-218.399S414.026 37.6 293.6 37.6zm80.578 327.259c-.305.258-.608.518-.937.755-.37.269-.749.52-1.132.754-22.164 15.811-49.269 25.123-78.509 25.123-29.24 0-56.344-9.312-78.509-25.123a16.722 16.722 0 0 1-1.132-.754c-.328-.239-.631-.499-.937-.755-33.295-24.71-54.915-64.306-54.915-108.86 0-74.711 60.782-135.493 135.493-135.493s135.493 60.782 135.493 135.493c0 44.555-21.619 84.15-54.915 108.86z"/><path d="M202.722 209.029l42.955 13.958c7.463-10.798 18.472-18.957 31.334-22.788v-45.163c-32.37 5.3-59.679 25.841-74.289 53.993zM312.979 310.894a57.937 57.937 0 0 1-19.379 3.329 57.946 57.946 0 0 1-19.379-3.329l-26.536 36.522c13.816 6.967 29.414 10.899 45.915 10.899s32.099-3.931 45.915-10.899l-26.536-36.522zM235.378 255.999c0-.49.024-.975.036-1.463l-42.969-13.962a102.71 102.71 0 0 0-1.162 15.425c0 27.994 11.305 53.394 29.584 71.887l26.53-36.516c-7.529-9.812-12.019-22.074-12.019-35.371z"/></symbol><use xlink:href="#sprite-racing" y="515" width="511.999" height="511.999"/></svg>